<svg width="24" height="24" viewBox="0 0 24 24" fill="currentColor" xmlns="http://www.w3.org/2000/svg">
<path fill-rule="evenodd" clip-rule="evenodd" d="M3.9389 0.375H0V2.625H2.0611L4.44527 15.7379C4.80188 17.6993 6.51017 19.125 8.50373 19.125H21V16.875H8.50373C7.59757 16.875 6.82107 16.227 6.65897 15.3354L3.9389 0.375Z" fill="currentColor"/>
<path fill-rule="evenodd" clip-rule="evenodd" d="M23.8113 3.375H3.75V5.625H21.1887L20.2794 11.5351C20.1387 12.4498 19.3517 13.125 18.4262 13.125H5.625V15.375H18.4262C20.4622 15.375 22.1937 13.8895 22.5033 11.8772L23.8113 3.375Z" fill="currentColor"/>
<path d="M12 22.125C12 23.1605 11.1605 24 10.125 24C9.08947 24 8.25 23.1605 8.25 22.125C8.25 21.0895 9.08947 20.25 10.125 20.25C11.1605 20.25 12 21.0895 12 22.125Z" fill="currentColor"/>
<path d="M18.75 22.125C18.75 23.1605 17.9105 24 16.875 24C15.8395 24 15 23.1605 15 22.125C15 21.0895 15.8395 20.25 16.875 20.25C17.9105 20.25 18.75 21.0895 18.75 22.125Z" fill="currentColor"/>
</svg>
