<svg width="24" height="24" viewBox="0 0 24 24" fill="none" xmlns="http://www.w3.org/2000/svg">
<path d="M8.25 12.375V14.625H15.75V12.375H8.25Z" fill="currentColor"/>
<path fill-rule="evenodd" clip-rule="evenodd" d="M5.30471 2.625L2.625 7.98442V17.25C2.625 19.5282 4.47183 21.375 6.75 21.375H17.25C19.5282 21.375 21.375 19.5282 21.375 17.25V7.98442L18.6953 2.625H5.30471ZM19.125 10.125H4.875V17.25C4.875 18.2855 5.71447 19.125 6.75 19.125H17.25C18.2855 19.125 19.125 18.2855 19.125 17.25V10.125ZM10.875 4.875V7.875H5.19529L6.69529 4.875H10.875ZM18.8047 7.875H13.125V4.875H17.3047L18.8047 7.875Z" fill="currentColor"/>
</svg>
