<svg width="24" height="24" viewBox="0 0 24 24" fill="currentColor" xmlns="http://www.w3.org/2000/svg">
<g clip-path="url(#clip0_1069_2107)">
<path fill-rule="evenodd" clip-rule="evenodd" d="M15.502 17.6234C13.8895 18.8034 11.9011 19.5 9.75 19.5C4.36522 19.5 0 15.1348 0 9.75C0 4.36522 4.36522 0 9.75 0C15.1348 0 19.5 4.36522 19.5 9.75C19.5 11.9012 18.8033 13.8897 17.6233 15.5021L23.5605 21.4393L21.4392 23.5607L15.502 17.6234ZM17.25 9.75C17.25 13.8921 13.8921 17.25 9.75 17.25C5.60786 17.25 2.25 13.8921 2.25 9.75C2.25 5.60786 5.60786 2.25 9.75 2.25C13.8921 2.25 17.25 5.60786 17.25 9.75Z" fill="currentColor"/>
</g>
<defs>
<clipPath id="clip0_1069_2107">
<rect width="24" height="24" fill="currentColor"/>
</clipPath>
</defs>
</svg>
